<svg width="28" height="29" viewBox="0 0 28 29" fill="none" xmlns="http://www.w3.org/2000/svg">
<path d="M14 28.5181C17.713 28.5181 21.274 27.0158 23.8995 24.3417C26.525 21.6676 28 18.0408 28 14.2591C28 10.4773 26.525 6.85047 23.8995 4.17638C21.274 1.50229 17.713 0 14 0C10.287 0 6.72601 1.50229 4.10051 4.17638C1.475 6.85047 0 10.4773 0 14.2591C0 18.0408 1.475 21.6676 4.10051 24.3417C6.72601 27.0158 10.287 28.5181 14 28.5181ZM8.97422 18.1302C9.95313 19.2831 11.6266 20.4974 14 20.4974C16.3734 20.4974 18.0469 19.2831 19.0258 18.1302C19.343 17.757 19.8953 17.718 20.2617 18.041C20.6281 18.3641 20.6664 18.9267 20.3492 19.2999C19.1297 20.7258 17.0133 22.2798 14 22.2798C10.9867 22.2798 8.87031 20.7258 7.65078 19.2999C7.33359 18.9267 7.37187 18.3641 7.73828 18.041C8.10469 17.718 8.65703 17.757 8.97422 18.1302ZM7.89687 11.5855C7.89687 11.1128 8.08125 10.6594 8.40944 10.3251C8.73763 9.99089 9.18275 9.8031 9.64687 9.8031C10.111 9.8031 10.5561 9.99089 10.8843 10.3251C11.2125 10.6594 11.3969 11.1128 11.3969 11.5855C11.3969 12.0582 11.2125 12.5116 10.8843 12.8458C10.5561 13.1801 10.111 13.3679 9.64687 13.3679C9.18275 13.3679 8.73763 13.1801 8.40944 12.8458C8.08125 12.5116 7.89687 12.0582 7.89687 11.5855ZM18.3969 9.8031C18.861 9.8031 19.3061 9.99089 19.6343 10.3251C19.9625 10.6594 20.1469 11.1128 20.1469 11.5855C20.1469 12.0582 19.9625 12.5116 19.6343 12.8458C19.3061 13.1801 18.861 13.3679 18.3969 13.3679C17.9327 13.3679 17.4876 13.1801 17.1594 12.8458C16.8313 12.5116 16.6469 12.0582 16.6469 11.5855C16.6469 11.1128 16.8313 10.6594 17.1594 10.3251C17.4876 9.99089 17.9327 9.8031 18.3969 9.8031Z" fill="#E2C208"/>
</svg>
