<svg width="29" height="26" viewBox="0 0 29 26" fill="none" xmlns="http://www.w3.org/2000/svg">
<path d="M0 3.69208C0 1.65567 1.62559 0 3.625 0H25.375C27.3744 0 29 1.65567 29 3.69208V22.1525C29 24.1889 27.3744 25.8445 25.375 25.8445H3.625C1.62559 25.8445 0 24.1889 0 22.1525V3.69208ZM18.3402 9.83592C18.0854 9.45518 17.6662 9.23019 17.2188 9.23019C16.7713 9.23019 16.3465 9.45518 16.0973 9.83592L11.1695 17.197L9.66855 15.2875C9.40801 14.9587 9.01719 14.7683 8.60938 14.7683C8.20156 14.7683 7.80508 14.9587 7.5502 15.2875L3.9252 19.9026C3.59668 20.318 3.53438 20.8891 3.76094 21.3679C3.9875 21.8467 4.46328 22.1525 4.98438 22.1525H10.4219H12.2344H24.0156C24.5197 22.1525 24.9842 21.8698 25.2164 21.414C25.4486 20.9583 25.4203 20.4103 25.1371 19.9891L18.3402 9.83592ZM6.34375 9.23019C7.06481 9.23019 7.75633 8.93845 8.2662 8.41915C8.77606 7.89985 9.0625 7.19553 9.0625 6.46113C9.0625 5.72673 8.77606 5.02241 8.2662 4.50311C7.75633 3.98381 7.06481 3.69208 6.34375 3.69208C5.62269 3.69208 4.93117 3.98381 4.4213 4.50311C3.91144 5.02241 3.625 5.72673 3.625 6.46113C3.625 7.19553 3.91144 7.89985 4.4213 8.41915C4.93117 8.93845 5.62269 9.23019 6.34375 9.23019Z" fill="#25A025"/>
</svg>
