<svg width="31" height="20" viewBox="0 0 31 20" fill="none" xmlns="http://www.w3.org/2000/svg">
<path d="M0 3.43702C0 1.66194 1.52575 0.21875 3.40237 0.21875H17.0118C18.8884 0.21875 20.4142 1.66194 20.4142 3.43702V16.3101C20.4142 18.0852 18.8884 19.5284 17.0118 19.5284H3.40237C1.52575 19.5284 0 18.0852 0 16.3101V3.43702ZM29.7229 2.01897C30.2757 2.30057 30.6213 2.84365 30.6213 3.43702V16.3101C30.6213 16.9035 30.2757 17.4465 29.7229 17.7281C29.17 18.0097 28.5001 17.9796 27.9738 17.6477L22.8703 14.4294L22.1154 13.9517V13.0918V6.65529V5.79541L22.8703 5.31769L27.9738 2.09943C28.4948 1.77257 29.1647 1.73737 29.7229 2.01897Z" fill="#AF1111" fill-opacity="0.9"/>
</svg>
